<mxfile host="app.diagrams.net" modified="2023-08-24T07:02:59.442Z" agent="Mozilla/5.0 (Windows NT 10.0; Win64; x64) AppleWebKit/537.36 (KHTML, like Gecko) Chrome/116.0.0.0 Safari/537.36" etag="EdGG1zSYDtz5Lvyc0jbb" version="21.6.8" type="github">
  <diagram name="ページ1" id="_kK0_OZ8hu37GKY_X8Z_">
    <mxGraphModel dx="1914" dy="991" grid="0" gridSize="10" guides="1" tooltips="1" connect="1" arrows="1" fold="1" page="1" pageScale="1" pageWidth="827" pageHeight="1169" math="0" shadow="0">
      <root>
        <mxCell id="0" />
        <mxCell id="1" parent="0" />
        <mxCell id="NgpdDbyxvN2O7LCOkagx-1" value="DNS" style="whiteSpace=wrap;html=1;" vertex="1" parent="1">
          <mxGeometry x="209" y="56" width="120" height="60" as="geometry" />
        </mxCell>
        <mxCell id="NgpdDbyxvN2O7LCOkagx-2" value="NTP" style="whiteSpace=wrap;html=1;" vertex="1" parent="1">
          <mxGeometry x="377" y="58" width="120" height="60" as="geometry" />
        </mxCell>
        <mxCell id="NgpdDbyxvN2O7LCOkagx-3" value="SNMP" style="whiteSpace=wrap;html=1;" vertex="1" parent="1">
          <mxGeometry x="41" y="56" width="120" height="60" as="geometry" />
        </mxCell>
        <mxCell id="NgpdDbyxvN2O7LCOkagx-4" value="LDAP" style="whiteSpace=wrap;html=1;" vertex="1" parent="1">
          <mxGeometry x="545" y="158" width="120" height="60" as="geometry" />
        </mxCell>
        <mxCell id="NgpdDbyxvN2O7LCOkagx-5" value="Windows server" style="whiteSpace=wrap;html=1;" vertex="1" parent="1">
          <mxGeometry x="713" y="56" width="120" height="60" as="geometry" />
        </mxCell>
        <mxCell id="NgpdDbyxvN2O7LCOkagx-6" value="AD" style="whiteSpace=wrap;html=1;" vertex="1" parent="1">
          <mxGeometry x="545" y="56" width="120" height="60" as="geometry" />
        </mxCell>
        <mxCell id="NgpdDbyxvN2O7LCOkagx-7" value="CentOS" style="whiteSpace=wrap;html=1;" vertex="1" parent="1">
          <mxGeometry x="713" y="158" width="120" height="60" as="geometry" />
        </mxCell>
        <mxCell id="NgpdDbyxvN2O7LCOkagx-8" value="Ubuntu" style="whiteSpace=wrap;html=1;" vertex="1" parent="1">
          <mxGeometry x="713" y="255" width="120" height="60" as="geometry" />
        </mxCell>
        <mxCell id="NgpdDbyxvN2O7LCOkagx-9" value="WAN" style="whiteSpace=wrap;html=1;" vertex="1" parent="1">
          <mxGeometry x="545" y="258" width="120" height="60" as="geometry" />
        </mxCell>
      </root>
    </mxGraphModel>
  </diagram>
</mxfile>
